# Blender v2.83.4 OBJ File: 'tombMap.blend'
# www.blender.org
mtllib caixao.mtl
v 0.548689 -0.479726 -0.618505
v 0.548689 -1.000000 -0.618505
v 0.657639 -1.000000 2.634304
v 0.657639 -0.428478 2.634304
v 0.606784 -1.000000 -1.282624
v 0.606784 -0.513424 -1.282624
v 0.777851 -0.479726 -0.383964
v 0.777851 -1.000000 -0.383964
v 0.274344 -0.296211 -0.610911
v 0.432416 -0.451865 -1.678912
v 0.327972 -1.000000 2.634304
v 0.432416 -1.000000 -1.678912
v 0.274344 -1.000000 -0.610911
v 0.327972 -0.428478 2.634304
v 0.410429 -0.296211 -0.388782
v 0.410429 -1.000000 -0.388782
v 0.706760 -0.479726 -0.827685
v 0.706760 -1.000000 -0.827685
v 0.347236 -0.296211 -1.028175
v 0.347236 -1.000000 -1.028175
v 0.464534 -0.666940 2.008618
v 0.464534 -1.000000 2.008618
v 0.179622 -0.509544 2.019025
v 0.179622 -1.000000 2.019025
v 0.652691 -0.386312 2.474234
v 0.290020 -0.357932 2.476896
v 0.290020 -1.000000 2.476896
v 0.652691 -1.000000 2.474234
v 0.640502 -1.000000 -1.129189
v 0.640502 -0.502058 -1.129189
v 0.405483 -0.402648 -1.473155
v 0.403688 -1.000000 -1.459442
v 0.000000 -1.000000 -0.609639
v 0.000000 -0.274879 -0.609639
v -0.548689 -0.479726 -0.618505
v -0.548689 -1.000000 -0.618505
v -0.657639 -1.000000 2.634304
v -0.657639 -0.428478 2.634304
v -0.606784 -1.000000 -1.282624
v -0.606784 -0.513424 -1.282624
v 0.000000 -1.000000 -1.811008
v 0.000000 -0.424212 -1.811008
v 0.000000 -1.000000 2.634304
v 0.000000 -0.428478 2.634304
v -0.777851 -0.479726 -0.383964
v -0.777851 -1.000000 -0.383964
v 0.000000 -0.274879 -0.375168
v 0.000000 -1.000000 -0.375168
v -0.274344 -0.296211 -0.610911
v -0.432416 -0.451865 -1.678912
v -0.327972 -1.000000 2.634304
v -0.432416 -1.000000 -1.678912
v -0.274344 -1.000000 -0.610911
v -0.327972 -0.428478 2.634304
v -0.410429 -0.296211 -0.388782
v -0.410429 -1.000000 -0.388782
v 0.000000 -0.274879 -1.090426
v -0.706760 -0.479726 -0.827685
v -0.706760 -1.000000 -0.827685
v 0.000000 -1.000000 -1.090426
v -0.347236 -0.296211 -1.028175
v -0.347236 -1.000000 -1.028175
v -0.464534 -0.666940 2.008618
v 0.000000 -0.560745 1.985097
v 0.000000 -1.000000 1.985097
v -0.464534 -1.000000 2.008618
v -0.179622 -0.509544 2.019025
v -0.179622 -1.000000 2.019025
v -0.652691 -0.386312 2.474234
v 0.000000 -0.371031 2.468216
v 0.000000 -1.000000 2.468216
v -0.290020 -0.357932 2.476896
v -0.290020 -1.000000 2.476896
v -0.652691 -1.000000 2.474234
v -0.640502 -1.000000 -1.129189
v 0.000000 -0.359918 -1.500770
v -0.640502 -0.502058 -1.129189
v 0.000000 -1.000000 -1.567981
v -0.405483 -0.402648 -1.473155
v -0.403688 -1.000000 -1.459442
vt 0.109433 0.737147
vt 0.036254 0.736427
vt 0.036446 0.685969
vt 0.144406 0.688374
vt 0.784975 0.920285
vt 0.622303 0.920285
vt 0.640572 0.843985
vt 0.784975 0.843985
vt 0.784975 0.144152
vt 0.602849 0.144152
vt 0.615363 0.115929
vt 0.784975 0.115929
vt 0.784975 0.761897
vt 0.630571 0.761897
vt 0.630571 0.715692
vt 0.784975 0.715692
vt 0.321484 0.073073
vt 0.285808 0.101264
vt 0.279889 0.089883
vt 0.299293 0.062118
vt 0.438447 0.804748
vt 0.372576 0.767142
vt 0.391519 0.706833
vt 0.460413 0.710386
vt 0.112818 0.039859
vt 0.036649 0.043160
vt 0.034855 0.004983
vt 0.121553 0.002286
vt 0.364816 0.650815
vt 0.432925 0.658357
vt 0.784975 0.057832
vt 0.615363 0.057832
vt 0.615363 0.000033
vt 0.784975 0.000033
vt 0.126615 0.827693
vt 0.038273 0.840813
vt 0.630571 0.657904
vt 0.784975 0.657904
vt 0.233758 0.787427
vt 0.194592 0.741190
vt 0.528573 0.712922
vt 0.528573 0.653223
vt 0.209630 0.036222
vt 0.209573 0.000042
vt 0.515378 0.840724
vt 0.365273 0.027440
vt 0.329297 0.000065
vt 0.784975 0.999967
vt 0.614097 0.999967
vt 0.253315 0.686368
vt 0.450713 0.944525
vt 0.402886 0.870465
vt 0.216861 0.855626
vt 0.144577 0.925840
vt 0.036798 0.931438
vt 0.376303 0.814224
vt 0.784975 0.816300
vt 0.637199 0.816300
vt 0.377164 0.143668
vt 0.418248 0.136649
vt 0.087053 0.149159
vt 0.174483 0.155582
vt 0.035794 0.158168
vt 0.318976 0.166490
vt 0.686132 0.232655
vt 0.784975 0.232655
vt 0.384790 0.903908
vt 0.378200 0.838183
vt 0.152965 0.971463
vt 0.038340 0.999958
vt 0.207258 0.888909
vt 0.417805 0.997349
vt 0.109433 0.737147
vt 0.144406 0.688374
vt 0.784975 0.920285
vt 0.784975 0.843985
vt 0.640572 0.843985
vt 0.622303 0.920285
vt 0.784975 0.144152
vt 0.784975 0.115929
vt 0.615363 0.115929
vt 0.602849 0.144152
vt 0.784975 0.761897
vt 0.784975 0.715692
vt 0.630571 0.715692
vt 0.630571 0.761897
vt 0.321484 0.073073
vt 0.299293 0.062118
vt 0.279889 0.089883
vt 0.285808 0.101264
vt 0.438447 0.804748
vt 0.460413 0.710386
vt 0.391519 0.706833
vt 0.372576 0.767142
vt 0.112818 0.039859
vt 0.121553 0.002286
vt 0.432925 0.658357
vt 0.364816 0.650815
vt 0.784975 0.057832
vt 0.615363 0.057832
vt 0.126615 0.827693
vt 0.784975 0.657904
vt 0.630571 0.657904
vt 0.233758 0.787427
vt 0.194592 0.741190
vt 0.209630 0.036222
vt 0.209573 0.000042
vt 0.253315 0.686368
vt 0.402886 0.870465
vt 0.216861 0.855626
vt 0.144577 0.925840
vt 0.376303 0.814224
vt 0.784975 0.816300
vt 0.637199 0.816300
vt 0.377164 0.143668
vt 0.174483 0.155582
vt 0.087053 0.149159
vt 0.318976 0.166490
vt 0.784975 0.232655
vt 0.686132 0.232655
vt 0.384790 0.903908
vt 0.378200 0.838183
vt 0.152965 0.971463
vt 0.207258 0.888909
vn 0.0618 0.9979 -0.0184
vn 0.9153 0.0000 -0.4027
vn 0.9995 0.0000 -0.0309
vn 0.7978 0.0000 0.6029
vn 0.0000 -1.0000 0.0000
vn -0.0249 0.9286 0.3703
vn 0.0000 0.0000 1.0000
vn 0.0679 0.9977 0.0055
vn 0.7153 -0.0000 -0.6989
vn 0.4552 0.8744 0.1678
vn 0.0399 0.9433 0.3295
vn 0.2922 0.0000 -0.9564
vn 0.4604 0.8078 -0.3682
vn 0.5331 0.8328 -0.1494
vn 0.1078 0.9717 -0.2102
vn 0.9767 0.0000 -0.2146
vn 0.4603 0.8788 0.1255
vn -0.0538 0.9934 0.1014
vn 0.9915 -0.0000 0.1298
vn 0.2341 0.8493 -0.4732
vn -0.0987 0.9391 -0.3291
vn 0.9272 0.0000 -0.3747
vn 0.1210 0.9708 -0.2072
vn 0.5795 0.8017 -0.1462
vn -0.0618 0.9979 -0.0184
vn -0.9153 0.0000 -0.4027
vn -0.9995 0.0000 -0.0309
vn -0.7978 0.0000 0.6029
vn 0.0249 0.9286 0.3703
vn -0.0679 0.9977 0.0055
vn -0.7153 -0.0000 -0.6989
vn -0.4552 0.8744 0.1678
vn -0.0399 0.9433 0.3295
vn -0.2922 0.0000 -0.9564
vn -0.4604 0.8078 -0.3682
vn -0.5331 0.8328 -0.1494
vn -0.1078 0.9717 -0.2102
vn -0.9767 0.0000 -0.2146
vn -0.4603 0.8788 0.1255
vn 0.0538 0.9934 0.1014
vn -0.9915 -0.0000 0.1298
vn -0.2341 0.8493 -0.4732
vn 0.0987 0.9391 -0.3291
vn -0.9272 0.0000 -0.3747
vn -0.1210 0.9708 -0.2072
vn -0.5795 0.8017 -0.1462
usemtl caixao
s off
f 9/1/1 34/2/1 47/3/1 15/4/1
f 12/5/2 10/6/2 6/7/2 5/8/2
f 28/9/3 25/10/3 4/11/3 3/12/3
f 18/13/4 17/14/4 1/15/4 2/16/4
f 27/17/5 28/18/5 3/19/5 11/20/5
f 20/21/5 18/22/5 2/23/5 13/24/5
f 26/25/6 70/26/6 44/27/6 14/28/6
f 13/24/5 2/23/5 8/29/5 16/30/5
f 11/31/7 14/32/7 44/33/7 43/34/7
f 19/35/8 57/36/8 34/2/8 9/1/8
f 2/16/9 1/15/9 7/37/9 8/38/9
f 17/39/10 19/35/10 9/1/10 1/40/10
f 3/12/7 4/11/7 14/32/7 11/31/7
f 33/41/5 13/24/5 16/30/5 48/42/5
f 25/43/11 26/25/11 14/28/11 4/44/11
f 60/45/5 20/21/5 13/24/5 33/41/5
f 71/46/5 27/17/5 11/20/5 43/47/5
f 41/48/12 42/49/12 10/6/12 12/5/12
f 1/40/13 9/1/13 15/4/13 7/50/13
f 78/51/5 32/52/5 20/21/5 60/45/5
f 30/53/14 31/54/14 19/35/14 17/39/14
f 31/54/15 76/55/15 57/36/15 19/35/15
f 32/52/5 29/56/5 18/22/5 20/21/5
f 29/57/16 30/58/16 17/14/16 18/13/16
f 48/42/5 16/30/5 24/59/5 65/60/5
f 7/50/17 15/4/17 23/61/17 21/62/17
f 15/4/18 47/3/18 64/63/18 23/61/18
f 16/30/5 8/29/5 22/64/5 24/59/5
f 8/38/19 7/37/19 21/65/19 22/66/19
f 65/60/5 24/59/5 27/17/5 71/46/5
f 21/62/20 23/61/20 26/25/20 25/43/20
f 23/61/21 64/63/21 70/26/21 26/25/21
f 24/59/5 22/64/5 28/18/5 27/17/5
f 22/66/22 21/65/22 25/10/22 28/9/22
f 5/8/16 6/7/16 30/58/16 29/57/16
f 12/67/5 5/68/5 29/56/5 32/52/5
f 10/69/23 42/70/23 76/55/23 31/54/23
f 6/71/24 10/69/24 31/54/24 30/53/24
f 41/72/5 12/67/5 32/52/5 78/51/5
f 49/73/25 55/74/25 47/3/25 34/2/25
f 52/75/26 39/76/26 40/77/26 50/78/26
f 74/79/27 37/80/27 38/81/27 69/82/27
f 59/83/28 36/84/28 35/85/28 58/86/28
f 73/87/5 51/88/5 37/89/5 74/90/5
f 62/91/5 53/92/5 36/93/5 59/94/5
f 72/95/29 54/96/29 44/27/29 70/26/29
f 53/92/5 56/97/5 46/98/5 36/93/5
f 51/99/7 43/34/7 44/33/7 54/100/7
f 61/101/30 49/73/30 34/2/30 57/36/30
f 36/84/31 46/102/31 45/103/31 35/85/31
f 58/104/32 35/105/32 49/73/32 61/101/32
f 37/80/7 51/99/7 54/100/7 38/81/7
f 33/41/5 48/42/5 56/97/5 53/92/5
f 69/106/33 38/107/33 54/96/33 72/95/33
f 60/45/5 33/41/5 53/92/5 62/91/5
f 71/46/5 43/47/5 51/88/5 73/87/5
f 41/48/34 52/75/34 50/78/34 42/49/34
f 35/105/35 45/108/35 55/74/35 49/73/35
f 78/51/5 60/45/5 62/91/5 80/109/5
f 77/110/36 58/104/36 61/101/36 79/111/36
f 79/111/37 61/101/37 57/36/37 76/55/37
f 80/109/5 62/91/5 59/94/5 75/112/5
f 75/113/38 59/83/38 58/86/38 77/114/38
f 48/42/5 65/60/5 68/115/5 56/97/5
f 45/108/39 63/116/39 67/117/39 55/74/39
f 55/74/40 67/117/40 64/63/40 47/3/40
f 56/97/5 68/115/5 66/118/5 46/98/5
f 46/102/41 66/119/41 63/120/41 45/103/41
f 65/60/5 71/46/5 73/87/5 68/115/5
f 63/116/42 69/106/42 72/95/42 67/117/42
f 67/117/43 72/95/43 70/26/43 64/63/43
f 68/115/5 73/87/5 74/90/5 66/118/5
f 66/119/44 74/79/44 69/82/44 63/120/44
f 39/76/38 75/113/38 77/114/38 40/77/38
f 52/121/5 80/109/5 75/112/5 39/122/5
f 50/123/45 79/111/45 76/55/45 42/70/45
f 40/124/46 77/110/46 79/111/46 50/123/46
f 41/72/5 78/51/5 80/109/5 52/121/5
