# Blender v2.83.4 OBJ File: 'tombMap.blend'
# www.blender.org
mtllib pile_gold_2obj.mtl
v -14.787766 6.791207 77.893646
v -8.053353 6.792516 77.959503
v -14.833084 6.791207 73.560646
v -7.998202 6.762899 73.560646
v -14.097576 6.791207 77.871521
v -13.390709 6.791207 77.995636
v -12.669520 6.762899 77.995636
v -11.948332 6.770773 77.995636
v -11.227144 6.719712 77.995636
v -10.505956 6.770773 77.995636
v -9.784578 6.771845 77.995361
v -8.915844 6.771845 78.034958
v -8.925900 6.762899 73.560646
v -9.784767 6.762899 73.560646
v -10.505956 6.770772 73.560646
v -11.227144 6.841465 73.560646
v -11.948332 6.770772 73.560646
v -12.669520 6.762899 73.560646
v -13.390709 6.762899 73.560646
v -14.111897 6.791207 73.560646
v -15.240887 6.791207 74.330521
v -15.329868 6.791207 75.165428
v -15.329868 6.805405 75.967827
v -15.251721 6.791207 76.791893
v -15.013511 6.791207 77.363556
v -7.731181 6.805593 77.495613
v -7.437340 6.771917 76.737701
v -7.610764 6.767559 75.902786
v -7.895830 6.760821 75.154594
v -7.625216 6.791207 74.352203
v -14.267027 6.791207 77.353447
v -14.273408 6.930741 76.770218
v -14.337070 7.111892 75.967827
v -14.359677 6.935294 75.165428
v -14.196980 6.791207 74.363037
v -13.390957 6.791207 77.410179
v -13.390709 7.168447 76.770218
v -13.390709 7.565906 75.967827
v -13.390709 7.171274 75.165428
v -13.390709 6.835202 74.363037
v -12.669520 7.006166 77.420319
v -12.669520 7.710611 76.770218
v -12.669520 8.052319 75.967827
v -12.669520 7.711044 75.165428
v -12.669520 7.008900 74.363037
v -11.948332 7.475503 77.496185
v -11.948332 8.534212 76.770218
v -11.948332 9.047711 75.967827
v -11.948332 8.534204 75.165428
v -11.948332 7.479322 74.363037
v -11.227144 7.702720 77.533722
v -11.227144 8.940273 76.770218
v -11.227144 9.568857 75.967827
v -11.227144 8.940264 75.165428
v -11.227144 7.707677 74.363037
v -10.505956 7.475503 77.496185
v -10.505956 8.534212 76.770218
v -10.505956 9.047709 75.967827
v -10.505956 8.534203 75.165428
v -10.505956 7.479321 74.363037
v -9.784767 7.006163 77.420212
v -9.784767 7.675008 76.770218
v -9.784767 8.014056 75.967827
v -9.784767 7.675005 75.165428
v -9.784715 7.010445 74.363037
v -8.837690 6.791207 77.456070
v -8.667406 7.088053 76.770218
v -8.854752 7.486546 75.967827
v -8.776841 7.089979 75.165428
v -8.652691 6.835202 74.363037
vt 4.962166 2.283763
vt 6.514127 2.300133
vt 5.950747 3.495744
vt 4.549494 3.495744
vt -4.989047 2.332880
vt -3.412266 2.283763
vt -3.283751 3.495744
vt -4.373078 3.495744
vt -2.194425 2.283763
vt -2.194425 3.495744
vt -1.105099 2.283763
vt -1.105099 3.495744
vt -0.015771 2.283763
vt -0.015771 3.495744
vt 1.073554 2.283763
vt 1.073554 3.495744
vt 2.162882 2.283763
vt 2.162882 3.495744
vt 3.252289 2.283763
vt 3.252209 3.495744
vt 3.252493 -3.202709
vt 4.564682 -3.262523
vt 4.682732 -2.388134
vt 3.252209 -2.333974
vt 4.939939 -1.352186
vt 3.252209 -1.352186
vt 4.656961 -0.140206
vt 3.252209 -0.140206
vt 4.774641 1.071786
vt 3.252209 1.071786
vt 2.162882 -3.203133
vt 2.162882 -2.448733
vt 2.162882 -1.352186
vt 2.162882 -0.140206
vt 2.162882 1.071786
vt 1.073554 -3.203133
vt 1.073554 -2.505422
vt 1.073554 -1.352186
vt 1.073554 -0.140206
vt 1.073554 1.071786
vt -0.015771 -3.203133
vt -0.015771 -2.448733
vt -0.015771 -1.352186
vt -0.015771 -0.140206
vt -0.015771 1.071786
vt -1.105099 -3.203133
vt -1.105099 -2.334136
vt -1.105099 -1.352186
vt -1.105099 -0.140206
vt -1.105099 1.071786
vt -2.194425 -3.203133
vt -2.194800 -2.318815
vt -2.194425 -1.352186
vt -2.194425 -0.140206
vt -2.194425 1.071786
vt -3.262121 -3.015654
vt -3.518070 -2.233127
vt -3.527708 -1.352186
vt -3.623868 -0.140206
vt -3.658014 1.071786
vt -4.304625 -3.049074
vt -4.645605 -2.248400
vt -5.005412 -1.384921
vt -5.123451 -0.140206
vt -5.123451 1.071786
vt 5.867442 -3.148550
vt 6.354071 -2.447862
vt 6.797905 -1.303071
vt 6.535957 -0.041964
vt 6.105376 1.088153
vn 0.1450 0.9704 -0.1929
vn 0.1098 0.9906 -0.0815
vn 0.0220 0.9972 -0.0719
vn 0.0607 0.9860 -0.1550
vn -0.0414 0.9974 -0.0585
vn -0.0602 0.9913 -0.1169
vn -0.0055 0.9997 -0.0243
vn 0.0000 1.0000 0.0000
vn -0.1661 0.9504 -0.2629
vn -0.0641 0.9907 -0.1200
vn -0.3240 0.8248 -0.4633
vn -0.1990 0.9160 -0.3482
vn -0.3168 0.6707 -0.6706
vn -0.2136 0.7746 -0.5952
vn 0.0000 0.6368 -0.7710
vn 0.0000 0.7137 -0.7004
vn 0.3216 0.6717 -0.6673
vn 0.2131 0.7745 -0.5955
vn 0.2934 0.8428 -0.4512
vn 0.1825 0.9162 -0.3566
vn 0.1925 0.8778 0.4386
vn 0.0508 0.9897 0.1334
vn 0.1292 0.9529 0.2742
vn 0.2968 0.7818 0.5483
vn 0.3106 0.8978 0.3122
vn 0.5217 0.6885 0.5038
vn 0.4579 0.8884 -0.0312
vn 0.6807 0.7325 -0.0048
vn 0.3493 0.8837 -0.3116
vn 0.5270 0.7129 -0.4627
vn 0.1773 0.6182 0.7657
vn 0.2997 0.5685 0.7661
vn 0.5234 0.6129 0.5919
vn 0.6507 0.7593 0.0000
vn 0.5216 0.6286 -0.5769
vn 0.0000 0.4949 0.8689
vn 0.0000 0.5232 0.8522
vn 0.0000 0.7190 0.6949
vn 0.0000 0.7285 -0.6850
vn -0.1792 0.6166 0.7666
vn -0.2954 0.5665 0.7693
vn -0.5155 0.6158 0.5958
vn -0.6451 0.7641 0.0000
vn -0.5135 0.6316 -0.5808
vn -0.2070 0.8759 0.4357
vn -0.3270 0.7683 0.5502
vn -0.5567 0.6555 0.5101
vn -0.7063 0.7079 0.0003
vn -0.5567 0.6829 -0.4731
vn -0.0677 0.9918 0.1085
vn -0.1602 0.9410 0.2979
vn -0.3515 0.8290 0.4350
vn -0.4830 0.8756 0.0045
vn -0.3502 0.8573 -0.3773
vn -0.0558 0.9890 0.1372
vn -0.1940 0.9479 0.2527
vn -0.2851 0.9585 0.0077
vn -0.1889 0.9614 -0.1999
vn -0.0483 0.9952 0.0848
vn -0.1585 0.9780 0.1357
vn -0.2215 0.9751 0.0079
vn -0.1489 0.9832 -0.1056
vn -0.0173 0.9995 0.0244
vn 0.0761 0.9855 0.1514
vn 0.2697 0.9472 0.1736
vn 0.4087 0.9114 -0.0469
vn 0.3079 0.9326 -0.1882
usemtl coin
s 1
f 70/1/1 30/2/2 4/3/3 13/4/4
f 21/5/5 35/6/6 20/7/7 3/8/8
f 35/6/6 40/9/9 19/10/10 20/7/7
f 40/9/9 45/11/11 18/12/12 19/10/10
f 45/11/11 50/13/13 17/14/14 18/12/12
f 50/13/13 55/15/15 16/16/16 17/14/14
f 55/15/15 60/17/17 15/18/18 16/16/16
f 60/17/17 65/19/19 14/20/20 15/18/18
f 65/19/19 70/1/1 13/4/4 14/20/20
f 11/21/21 12/22/22 66/23/23 61/24/24
f 61/24/24 66/23/23 67/25/25 62/26/26
f 62/26/26 67/25/25 68/27/27 63/28/28
f 63/28/28 68/27/27 69/29/29 64/30/30
f 64/30/30 69/29/29 70/1/1 65/19/19
f 10/31/31 11/21/21 61/24/24 56/32/32
f 56/32/32 61/24/24 62/26/26 57/33/33
f 57/33/33 62/26/26 63/28/28 58/34/34
f 58/34/34 63/28/28 64/30/30 59/35/35
f 59/35/35 64/30/30 65/19/19 60/17/17
f 9/36/36 10/31/31 56/32/32 51/37/37
f 51/37/37 56/32/32 57/33/33 52/38/38
f 52/38/38 57/33/33 58/34/34 53/39/8
f 53/39/8 58/34/34 59/35/35 54/40/39
f 54/40/39 59/35/35 60/17/17 55/15/15
f 8/41/40 9/36/36 51/37/37 46/42/41
f 46/42/41 51/37/37 52/38/38 47/43/42
f 47/43/42 52/38/38 53/39/8 48/44/43
f 48/44/43 53/39/8 54/40/39 49/45/44
f 49/45/44 54/40/39 55/15/15 50/13/13
f 7/46/45 8/41/40 46/42/41 41/47/46
f 41/47/46 46/42/41 47/43/42 42/48/47
f 42/48/47 47/43/42 48/44/43 43/49/48
f 43/49/48 48/44/43 49/45/44 44/50/49
f 44/50/49 49/45/44 50/13/13 45/11/11
f 6/51/50 7/46/45 41/47/46 36/52/51
f 36/52/51 41/47/46 42/48/47 37/53/52
f 37/53/52 42/48/47 43/49/48 38/54/53
f 38/54/53 43/49/48 44/50/49 39/55/54
f 39/55/54 44/50/49 45/11/11 40/9/9
f 5/56/8 6/51/50 36/52/51 31/57/55
f 31/57/55 36/52/51 37/53/52 32/58/56
f 32/58/56 37/53/52 38/54/53 33/59/57
f 33/59/57 38/54/53 39/55/54 34/60/58
f 34/60/58 39/55/54 40/9/9 35/6/6
f 1/61/8 5/56/8 31/57/55 25/62/59
f 25/62/59 31/57/55 32/58/56 24/63/60
f 24/63/60 32/58/56 33/59/57 23/64/61
f 23/64/61 33/59/57 34/60/58 22/65/62
f 22/65/62 34/60/58 35/6/6 21/5/5
f 12/22/22 2/66/63 26/67/64 66/23/23
f 66/23/23 26/67/64 27/68/65 67/25/25
f 67/25/25 27/68/65 28/69/66 68/27/27
f 68/27/27 28/69/66 29/70/67 69/29/29
f 69/29/29 29/70/67 30/2/2 70/1/1
