# Blender v2.83.4 OBJ File: 'tombMap.blend'
# www.blender.org
mtllib suporte.mtl
v -1.000000 -1.000000 2.652014
v -1.000000 1.000000 2.652014
v -1.000000 -1.000000 -2.652014
v -1.000000 1.000000 -2.652014
v 1.000000 -1.000000 2.652014
v 1.000000 1.000000 2.652014
v 1.000000 -1.000000 -2.652014
v 1.000000 1.000000 -2.652014
v -0.781502 0.753800 2.072564
v -0.781502 0.753800 -2.072564
v 0.781509 0.753800 -2.072564
v 0.781509 0.753800 2.072564
v -0.945574 0.857143 2.507679
v -0.945574 0.857143 -2.507679
v 0.945576 0.857143 -2.507679
v 0.945576 0.857143 2.507679
vt 0.437957 0.651731
vt 0.463845 0.628120
vt 0.463845 0.954574
vt 0.440230 0.928310
vt 0.142006 0.947254
vt 0.167325 0.924412
vt 0.142079 0.630182
vt 0.165220 0.655547
vt 0.463967 0.628120
vt 0.752581 0.628120
vt 0.752581 0.916733
vt 0.463967 0.916733
vt 0.625000 0.500000
vt 0.875000 0.500000
vt 0.875000 0.750000
vt 0.625000 0.750000
vt 0.998179 -0.003395
vt 1.001638 0.604282
vt -0.002889 0.615551
vt -0.006348 -0.016929
vt 0.995078 0.053544
vt 0.883823 0.571309
vt 0.099424 0.576378
vt 0.006053 0.061713
vt 0.994780 0.002422
vt 1.011183 0.620648
vt -0.006240 0.625394
vt 0.001493 -0.016348
vt 0.990972 0.058244
vt 0.881745 0.572810
vt 0.100386 0.572810
vt 0.006662 0.058244
vt 0.194233 0.684048
vt 0.408924 0.681273
vt 0.194959 0.896774
vt 0.409788 0.897926
vn -0.9345 -0.3560 0.0000
vn 0.0000 -0.7107 -0.7035
vn 0.9345 -0.3560 0.0000
vn 0.0000 -0.7107 0.7035
vn 0.0000 -1.0000 0.0000
vn 0.0000 1.0000 0.0000
vn 0.0000 0.3137 0.9495
vn 0.9923 0.1236 0.0000
vn 0.0000 0.3137 -0.9495
vn -0.9923 0.1236 0.0000
vn 0.0000 -0.9729 0.2311
vn 0.5330 -0.8461 0.0000
vn 0.0000 -0.9729 -0.2311
vn -0.5330 -0.8461 0.0000
usemtl suporte
s off
f 13/1/1 2/2/1 4/3/1 14/4/1
f 14/4/2 4/3/2 8/5/2 15/6/2
f 15/6/3 8/5/3 6/7/3 16/8/3
f 16/8/4 6/7/4 2/2/4 13/1/4
f 3/9/5 7/10/5 5/11/5 1/12/5
f 8/13/6 4/14/6 2/15/6 6/16/6
f 5/17/7 12/18/7 9/19/7 1/20/7
f 7/21/8 11/22/8 12/23/8 5/24/8
f 3/25/9 10/26/9 11/27/9 7/28/9
f 1/29/10 9/30/10 10/31/10 3/32/10
f 12/33/11 16/8/11 13/1/11 9/34/11
f 11/35/12 15/6/12 16/8/12 12/33/12
f 10/36/13 14/4/13 15/6/13 11/35/13
f 9/34/14 13/1/14 14/4/14 10/36/14
