# Blender v2.83.4 OBJ File: 'tombMap.blend'
# www.blender.org
mtllib treasure_chest.mtl
v 1.000000 -1.000000 1.000000
v 1.000000 -1.000000 -1.000000
v 0.851696 0.607874 0.768588
v 0.843587 0.040735 -1.128996
v 0.830378 -1.000000 1.000000
v 0.830378 -1.000000 -1.000000
v 0.851696 0.607874 -0.768588
v 0.843587 0.040735 1.128996
v 0.831699 -0.880780 1.012900
v 0.831699 -0.880780 -1.012900
v 0.842833 -0.027390 1.121625
v 0.842833 -0.027390 -1.121625
v 1.000000 -1.000000 0.896317
v 0.990088 0.082253 1.003643
v 0.830378 -1.000000 0.896317
v 0.976836 -0.886025 0.892070
v 0.990007 -0.050326 0.987807
v 0.998548 0.573559 0.723797
v 1.000000 -1.000000 -0.872820
v 0.990088 0.082253 -0.977052
v 0.830378 -1.000000 -0.872820
v 0.976836 -0.886025 -0.868340
v 0.990007 -0.050326 -0.961567
v 0.998548 0.573559 -0.704542
v 1.026179 0.049762 1.172696
v 1.036159 0.641863 0.796149
v 0.842837 0.050168 -1.182239
v 1.026179 0.049762 -1.180637
v 1.011795 -0.913791 -1.059853
v 1.010288 -1.037467 -1.046323
v 1.012233 -1.036968 -0.909520
v 1.028737 0.048462 1.045915
v 1.011795 -0.913791 1.051913
v 1.010288 -1.037467 1.038382
v 0.829133 -1.037639 1.040606
v 0.851250 0.643207 -0.804820
v 1.036159 0.641863 -0.804090
v 0.842837 0.049362 1.174436
v 0.851250 0.643207 0.796879
v 0.829133 -1.037639 -1.048547
v 0.830504 -0.913948 1.053989
v 0.830504 -0.913948 -1.061930
v 1.025705 -0.022720 -1.172656
v 1.025705 -0.022720 1.164715
v 0.842054 -0.022878 1.166792
v 0.842054 -0.022878 -1.174733
v 1.013884 -0.913278 0.937953
v 1.027794 -0.022207 1.039060
v 1.012233 -1.036968 0.925957
v 1.028737 0.048462 -1.026332
v 1.013884 -0.913278 -0.921201
v 1.027794 -0.022207 -1.019657
v 1.037587 0.562461 0.753134
v 1.037587 0.562461 -0.741227
v 0.080030 -0.022878 1.166792
v 0.079498 0.047950 1.174439
v 0.078616 0.040735 1.128996
v 0.080905 -0.027390 1.121625
v 0.078536 0.127708 1.115330
v 0.079417 0.134923 1.160773
v 0.080905 -0.107301 1.129609
v 0.080030 -0.102788 1.174776
v 1.000000 -1.235363 -0.872820
v 1.000000 -1.235363 -1.000000
v 0.830378 -1.235363 1.000000
v 1.000000 -1.235363 1.000000
v 0.830378 -1.235363 -1.000000
v 0.830378 -1.235363 0.896317
v 1.000000 -1.235363 0.896317
v 0.830378 -1.235363 -0.872820
v 0.000000 0.607874 0.768588
v 0.000000 0.607874 -0.768588
v -1.000000 -1.000000 1.000000
v -1.000000 -1.000000 -1.000000
v 0.000000 -1.000000 -1.000000
v 0.000000 0.040735 -1.128996
v 0.000000 -1.000000 1.000000
v 0.000000 0.040735 1.128996
v -0.851696 0.607874 0.768588
v -0.843587 0.040735 -1.128996
v -0.830378 -1.000000 1.000000
v -0.830378 -1.000000 -1.000000
v -0.851696 0.607874 -0.768588
v -0.843587 0.040735 1.128996
v 0.000000 -0.880780 1.012900
v 0.000000 -0.880780 -1.012900
v -0.831699 -0.880780 1.012900
v -0.831699 -0.880780 -1.012900
v 0.000000 -0.027390 1.121625
v 0.000000 -0.027390 -1.121625
v -0.842833 -0.027390 1.121625
v -0.842833 -0.027390 -1.121625
v -1.000000 -1.000000 0.896317
v -0.990088 0.082253 1.003643
v 0.000000 0.040735 1.011938
v 0.000000 -1.000000 0.896317
v -0.830378 -1.000000 0.896317
v -0.976836 -0.886025 0.892070
v -0.990007 -0.050326 0.987807
v 0.000000 0.536172 0.729740
v -0.998548 0.573559 0.723797
v -1.000000 -1.000000 -0.872820
v -0.990088 0.082253 -0.977052
v 0.000000 0.040735 -0.985410
v 0.000000 -1.000000 -0.872820
v -0.830378 -1.000000 -0.872820
v -0.976836 -0.886025 -0.868340
v -0.990007 -0.050326 -0.961567
v 0.000000 0.536172 -0.710609
v -0.998548 0.573559 -0.704542
v -1.026179 0.049762 1.172696
v -1.036159 0.641863 0.796149
v -0.842837 0.050168 -1.182239
v -1.026179 0.049762 -1.180637
v -1.011795 -0.913791 -1.059853
v -1.010288 -1.037467 -1.046323
v -1.012233 -1.036968 -0.909520
v -1.028737 0.048462 1.045915
v -1.011795 -0.913791 1.051913
v -1.010288 -1.037467 1.038382
v -0.829133 -1.037639 1.040606
v -0.851250 0.643207 -0.804820
v -1.036159 0.641863 -0.804090
v -0.842837 0.049362 1.174436
v 0.000000 0.047803 1.174439
v 0.000000 -0.913948 1.053989
v 0.000000 -1.037639 1.040606
v -0.851250 0.643207 0.796879
v -0.829133 -1.037639 -1.048547
v -0.830504 -0.913948 1.053989
v -0.830504 -0.913948 -1.061930
v -1.025705 -0.022720 -1.172656
v -1.025705 -0.022720 1.164715
v -0.842054 -0.022878 1.166792
v -0.842054 -0.022878 -1.174733
v -1.013884 -0.913278 0.937953
v 0.000000 -0.022878 1.166792
v -1.027794 -0.022207 1.039060
v -1.012233 -1.036968 0.925957
v -1.028737 0.048462 -1.026332
v -1.013884 -0.913278 -0.921201
v -1.027794 -0.022207 -1.019657
v -1.037587 0.562461 0.753134
v -1.037587 0.562461 -0.741227
v -0.080030 -0.022878 1.166792
v -0.079498 0.047950 1.174439
v -0.078616 0.040735 1.128996
v -0.080905 -0.027390 1.121625
v -0.078536 0.127708 1.115330
v 0.000000 0.127708 1.115330
v 0.000000 0.134776 1.160773
v -0.079417 0.134923 1.160773
v 0.000000 -0.102788 1.174776
v 0.000000 -0.107301 1.129609
v -0.080905 -0.107301 1.129609
v -0.080030 -0.102788 1.174776
v -1.000000 -1.235363 -0.872820
v -1.000000 -1.235363 -1.000000
v -0.830378 -1.235363 1.000000
v -1.000000 -1.235363 1.000000
v -0.830378 -1.235363 -1.000000
v -0.830378 -1.235363 0.896317
v -1.000000 -1.235363 0.896317
v -0.830378 -1.235363 -0.872820
vt 0.315091 0.334452
vt 0.318229 0.332982
vt 0.320840 0.338560
vt 0.317681 0.340029
vt 0.224523 0.239469
vt 0.276620 0.242145
vt 0.279234 0.245731
vt 0.221445 0.243439
vt 0.339088 0.045006
vt 0.348696 0.045006
vt 0.348696 0.058339
vt 0.339088 0.058339
vt 0.232361 0.109430
vt 0.287867 0.118769
vt 0.286803 0.122166
vt 0.230572 0.112547
vt 0.265621 0.244127
vt 0.283245 0.244127
vt 0.283245 0.244127
vt 0.265621 0.244127
vt 0.611416 0.525101
vt 0.824605 0.525101
vt 0.824605 0.643222
vt 0.611416 0.643222
vt 0.215972 0.119779
vt 0.222582 0.109599
vt 0.223748 0.113522
vt 0.220320 0.122878
vt 0.179343 0.233355
vt 0.265621 0.233355
vt 0.179343 0.244127
vt 0.328491 0.061342
vt 0.333160 0.064645
vt 0.292499 0.122123
vt 0.231183 0.046017
vt 0.237208 0.046636
vt 0.276259 0.143909
vt 0.278563 0.140823
vt 0.283695 0.271769
vt 0.220670 0.264935
vt 0.218435 0.261997
vt 0.286693 0.268559
vt 0.179343 0.244127
vt 0.283245 0.233355
vt 0.283245 0.049538
vt 0.283245 0.049538
vt 0.283245 0.233355
vt 0.934903 0.762908
vt 0.934903 0.882220
vt 0.818012 0.882220
vt 0.819556 0.762908
vt 0.228881 0.137001
vt 0.226479 0.132422
vt 0.819556 0.762721
vt 0.818012 0.643409
vt 0.923682 0.643409
vt 0.934903 0.643409
vt 0.934903 0.762721
vt 0.290159 0.124843
vt 0.302110 0.160908
vt 0.284314 0.145530
vt 0.282129 0.141279
vt 0.303332 0.158898
vt 0.518222 0.656338
vt 0.634138 0.643409
vt 0.634138 0.913764
vt 0.518222 0.900487
vt 0.283245 0.036324
vt 0.283245 0.036324
vt 0.634325 0.643409
vt 0.749489 0.643409
vt 0.749489 0.888767
vt 0.634325 0.888767
vt 0.305584 0.219326
vt 0.307451 0.221336
vt 0.213592 0.106988
vt 0.208618 0.116282
vt 0.111676 0.064406
vt 0.116649 0.055111
vt 0.322353 0.226913
vt 0.297840 0.265336
vt 0.293272 0.265821
vt 0.320351 0.226898
vt 0.285189 0.252111
vt 0.310959 0.222791
vt 0.285496 0.239925
vt 0.282917 0.245436
vt 0.326969 0.329039
vt 0.323104 0.330717
vt 0.817825 0.643409
vt 0.817825 0.918108
vt 0.749676 0.880314
vt 0.749676 0.682220
vt 0.333214 0.045006
vt 0.333214 0.058339
vt 0.315580 0.152080
vt 0.317895 0.152265
vt 0.518222 0.642097
vt 0.518222 0.525101
vt 0.224845 0.045006
vt 0.185244 0.306802
vt 0.182931 0.304864
vt 0.284963 0.133855
vt 0.281217 0.132318
vt 0.280896 0.253595
vt 0.306816 0.156542
vt 0.214092 0.248793
vt 0.221087 0.250350
vt 0.210980 0.258307
vt 0.176717 0.299722
vt 0.214400 0.242497
vt 0.228440 0.124125
vt 0.218785 0.131950
vt 0.917799 0.525101
vt 0.917799 0.536004
vt 0.917799 0.642097
vt 0.326304 0.338117
vt 0.330169 0.336438
vt 0.333160 0.342978
vt 0.329330 0.344729
vt 0.334052 0.335212
vt 0.331834 0.632518
vt 0.000060 0.631909
vt 0.000059 0.335214
vt 0.625000 0.865327
vt 0.625000 0.875000
vt 0.625000 0.875000
vt 0.625000 0.865327
vt 0.331494 0.999942
vt 0.000058 0.999333
vt 0.320402 0.345619
vt 0.323538 0.344092
vt 0.610714 0.875000
vt 0.610714 0.865036
vt 0.610714 0.865036
vt 0.610714 0.875000
vt 0.000058 0.000059
vt 0.334050 0.000058
vt 0.265621 0.233355
vt 0.283245 0.233355
vt 0.283245 0.244127
vt 0.265621 0.244127
vt 0.214925 0.113176
vt 0.214995 0.113459
vt 0.214771 0.113532
vt 0.214753 0.113255
vt 0.315091 0.334452
vt 0.317681 0.340029
vt 0.320840 0.338560
vt 0.318229 0.332982
vt 0.224523 0.239469
vt 0.221445 0.243439
vt 0.279234 0.245731
vt 0.276620 0.242145
vt 0.339088 0.045006
vt 0.339088 0.058339
vt 0.348696 0.058339
vt 0.348696 0.045006
vt 0.232361 0.109430
vt 0.230572 0.112547
vt 0.286803 0.122166
vt 0.287867 0.118769
vt 0.265621 0.244127
vt 0.265621 0.244127
vt 0.283245 0.244127
vt 0.283245 0.244127
vt 0.611416 0.643222
vt 0.824605 0.643222
vt 0.215972 0.119779
vt 0.220320 0.122878
vt 0.223748 0.113522
vt 0.222582 0.109599
vt 0.265621 0.233355
vt 0.292499 0.122123
vt 0.278563 0.140823
vt 0.276259 0.143909
vt 0.283695 0.271769
vt 0.286693 0.268559
vt 0.218435 0.261997
vt 0.220670 0.264935
vt 0.283245 0.233355
vt 0.283245 0.233355
vt 0.283245 0.049538
vt 0.283245 0.049538
vt 0.819556 0.762908
vt 0.818012 0.882220
vt 0.228881 0.137001
vt 0.226479 0.132422
vt 0.819556 0.762721
vt 0.923682 0.643409
vt 0.818012 0.643409
vt 0.290159 0.124843
vt 0.302110 0.160908
vt 0.303332 0.158898
vt 0.282129 0.141279
vt 0.284314 0.145530
vt 0.518222 0.656338
vt 0.518222 0.900487
vt 0.634138 0.913764
vt 0.634138 0.643409
vt 0.283245 0.036324
vt 0.283245 0.036324
vt 0.749489 0.888767
vt 0.749489 0.643409
vt 0.305584 0.219326
vt 0.307451 0.221336
vt 0.000000 0.000000
vt 0.000000 0.000000
vt 0.000000 0.000000
vt 0.000000 0.000000
vt 0.213592 0.106988
vt 0.116649 0.055111
vt 0.111676 0.064406
vt 0.208618 0.116282
vt 0.322353 0.226913
vt 0.320351 0.226898
vt 0.293272 0.265821
vt 0.297840 0.265336
vt 0.310959 0.222791
vt 0.285189 0.252111
vt 0.000000 0.000000
vt 0.000000 0.000000
vt 0.000000 0.000000
vt 0.282917 0.245436
vt 0.285496 0.239925
vt 0.323104 0.330717
vt 0.326969 0.329039
vt 0.817825 0.643409
vt 0.749676 0.682220
vt 0.749676 0.880314
vt 0.817825 0.918108
vt 0.000000 0.000000
vt 0.333214 0.045006
vt 0.333214 0.058339
vt 0.317895 0.152265
vt 0.315580 0.152080
vt 0.518222 0.642097
vt 0.281217 0.132318
vt 0.284963 0.133855
vt 0.280896 0.253595
vt 0.306816 0.156542
vt 0.214092 0.248793
vt 0.210980 0.258307
vt 0.221087 0.250350
vt 0.214400 0.242497
vt 0.228440 0.124125
vt 0.218785 0.131950
vt 0.917799 0.642097
vt 0.917799 0.536004
vt 0.326304 0.338117
vt 0.330169 0.336438
vt 0.334052 0.335212
vt 0.331834 0.632518
vt 0.625000 0.865327
vt 0.625000 0.865327
vt 0.331494 0.999942
vt 0.610714 0.865036
vt 0.610714 0.865036
vt 0.334050 0.000058
vt 0.265621 0.233355
vt 0.265621 0.244127
vt 0.283245 0.244127
vt 0.283245 0.233355
vt 0.214925 0.113176
vt 0.214753 0.113255
vt 0.214771 0.113532
vt 0.214995 0.113459
vn 0.9998 0.0019 0.0192
vn 0.7906 0.0571 -0.6096
vn 0.0000 0.0000 1.0000
vn -0.9998 0.0149 0.0151
vn -0.0040 -0.7249 -0.6888
vn 0.0000 1.0000 0.0000
vn -0.0035 -0.7842 0.6205
vn 0.0000 -1.0000 0.0000
vn 0.0000 -0.1076 -0.9942
vn 0.5970 -0.8022 0.0000
vn -0.9997 0.0153 -0.0178
vn 0.0000 -0.7334 -0.6798
vn -0.9494 -0.3142 0.0000
vn 0.0000 -0.1264 -0.9920
vn 0.5925 0.8055 0.0000
vn -0.0000 -0.1264 0.9920
vn -0.9998 0.0126 0.0160
vn 0.5605 -0.4091 0.7201
vn 0.9999 -0.0158 0.0000
vn -0.9547 -0.2974 0.0076
vn -0.2734 -0.9619 0.0000
vn -0.9998 0.0028 -0.0179
vn 0.0070 0.5365 0.8439
vn -0.9998 0.0128 0.0157
vn 0.8279 0.0490 0.5588
vn 0.6582 0.7528 0.0000
vn -0.0009 0.9851 -0.1717
vn 0.9999 -0.0172 0.0000
vn -0.9547 -0.2974 -0.0093
vn 1.0000 0.0000 0.0000
vn -0.9999 -0.0126 0.0000
vn 0.0000 0.5363 -0.8440
vn 0.0000 0.7781 0.6281
vn 0.4527 -0.4472 -0.7714
vn 0.0099 -0.1059 -0.9943
vn 0.9998 -0.0118 0.0184
vn 0.0073 1.0000 0.0000
vn 0.0001 -0.1063 0.9943
vn 0.0105 -0.1074 0.9942
vn -0.9999 0.0044 0.0155
vn 0.0119 -0.1083 0.9940
vn 0.0000 -0.1076 0.9942
vn 0.9997 -0.0146 0.0177
vn 0.0119 -0.1083 -0.9940
vn 0.0114 -0.1257 0.9920
vn 0.9997 -0.0177 0.0174
vn 0.0114 -0.1257 -0.9920
vn 0.9999 -0.0133 0.0000
vn 0.0079 0.5367 -0.8438
vn 0.9998 -0.0114 -0.0151
vn 1.0000 0.0067 -0.0000
vn 0.9998 -0.0142 -0.0146
vn 0.9997 -0.0173 -0.0143
vn 0.0000 0.5363 0.8440
vn -0.0009 0.9879 -0.1552
vn 0.0001 -0.1075 0.9942
vn 0.9998 -0.0021 -0.0191
vn 0.0000 -0.9950 0.0994
vn 0.0000 -0.1552 -0.9879
vn -0.0003 0.1552 0.9879
vn -0.0000 -0.0994 -0.9950
vn 0.0000 0.0994 0.9950
vn -1.0000 0.0000 0.0000
vn 0.0000 0.0000 -1.0000
vn -0.9998 0.0019 0.0192
vn -0.7906 0.0571 -0.6096
vn 0.9998 0.0149 0.0151
vn 0.0040 -0.7249 -0.6888
vn 0.0035 -0.7842 0.6205
vn -0.5970 -0.8022 0.0000
vn 0.9997 0.0153 -0.0178
vn 0.9494 -0.3142 0.0000
vn -0.5925 0.8055 0.0000
vn 0.9998 0.0126 0.0160
vn -0.5605 -0.4091 0.7201
vn -0.9999 -0.0158 0.0000
vn 0.9547 -0.2973 0.0076
vn 0.2734 -0.9619 0.0000
vn 0.9998 0.0028 -0.0179
vn -0.0070 0.5365 0.8439
vn 0.9998 0.0128 0.0157
vn -0.8279 0.0490 0.5588
vn -0.6582 0.7528 0.0000
vn 0.0009 0.9851 -0.1717
vn -0.9999 -0.0172 0.0000
vn 0.9547 -0.2974 -0.0093
vn 0.9999 -0.0126 0.0000
vn -0.4527 -0.4472 -0.7714
vn -0.0099 -0.1059 -0.9943
vn -0.9998 -0.0118 0.0184
vn -0.0073 1.0000 0.0000
vn -0.0001 -0.1063 0.9943
vn -0.0105 -0.1074 0.9942
vn 0.9999 0.0044 0.0155
vn -0.0119 -0.1083 0.9940
vn -0.9997 -0.0146 0.0177
vn -0.0119 -0.1083 -0.9940
vn -0.0114 -0.1257 0.9920
vn -0.9997 -0.0177 0.0174
vn -0.0114 -0.1257 -0.9920
vn -0.9999 -0.0133 0.0000
vn -0.0079 0.5367 -0.8438
vn -0.9998 -0.0114 -0.0151
vn -1.0000 0.0067 -0.0000
vn -0.9998 -0.0142 -0.0146
vn -0.9997 -0.0173 -0.0143
vn 0.0009 0.9879 -0.1552
vn -0.0001 -0.1075 0.9942
vn -0.9998 -0.0021 -0.0191
vn 0.0003 0.1552 0.9879
usemtl chest
s off
f 58/1/1 55/2/1 62/3/1 61/4/1
f 16/5/2 17/6/2 48/7/2 47/8/2
f 1/9/3 5/10/3 65/11/3 66/12/3
f 10/13/4 12/14/4 46/15/4 42/16/4
f 5/17/5 1/18/5 34/19/5 35/20/5
f 72/21/6 71/22/6 3/23/6 7/24/6
f 2/25/7 6/26/7 40/27/7 30/28/7
f 96/29/8 15/30/8 5/17/8 77/31/8
f 90/32/9 76/33/9 4/34/9 12/14/9
f 75/35/9 86/36/9 10/13/9 6/26/9
f 17/6/10 23/37/10 52/38/10 48/7/10
f 11/39/11 9/40/11 41/41/11 45/42/11
f 77/31/12 5/17/12 35/20/12 127/43/12
f 13/44/13 19/45/13 31/46/13 49/47/13
f 86/48/14 90/49/14 12/50/14 10/51/14
f 22/52/15 16/5/15 47/8/15 51/53/15
f 9/54/16 11/55/16 58/56/16 89/57/16 85/58/16
f 12/14/17 4/34/17 27/59/17 46/15/17
f 24/60/18 20/61/18 50/62/18 54/63/18
f 22/64/19 23/65/19 17/66/19 16/67/19
f 19/45/20 2/68/20 30/69/20 31/46/20
f 105/70/8 21/71/8 15/72/8 96/73/8
f 18/74/21 24/60/21 54/63/21 53/75/21
f 21/76/8 19/77/8 13/78/8 15/79/8
f 3/80/22 8/81/22 38/82/22 39/83/22
f 38/82/23 25/84/23 26/85/23 39/83/23
f 6/26/24 10/13/24 42/16/24 40/27/24
f 23/37/25 22/52/25 51/53/25 52/38/25
f 20/61/26 14/86/26 32/87/26 50/62/26
f 8/81/27 57/88/27 56/89/27 38/82/27
f 14/90/28 20/91/28 24/92/28 18/93/28
f 1/18/29 13/44/29 49/47/29 34/19/29
f 13/94/30 1/9/30 66/12/30 69/95/30
f 3/80/31 39/83/31 36/96/31 7/97/31
f 4/98/32 76/99/32 72/21/32 7/24/32
f 75/35/8 6/26/8 21/76/8 105/100/8
f 9/40/33 85/101/33 126/102/33 41/41/33
f 14/86/34 18/74/34 53/75/34 32/87/34
f 46/15/35 27/59/35 28/103/35 43/104/35
f 48/7/36 32/87/36 25/84/36 44/105/36
f 39/83/37 26/85/37 37/106/37 36/96/37
f 45/42/38 38/82/38 56/89/38 55/2/38
f 44/105/39 25/84/39 38/82/39 45/42/39
f 4/34/40 7/97/40 36/96/40 27/59/40
f 34/107/41 33/108/41 41/41/41 35/109/41
f 35/109/42 41/41/42 126/102/42 127/110/42
f 49/111/43 47/8/43 33/108/43 34/107/43
f 40/27/44 42/16/44 29/112/44 30/28/44
f 33/108/45 44/105/45 45/42/45 41/41/45
f 47/8/46 48/7/46 44/105/46 33/108/46
f 42/16/47 46/15/47 43/104/47 29/112/47
f 31/113/48 51/53/48 47/8/48 49/111/48
f 52/38/48 50/62/48 32/87/48 48/7/48
f 28/103/49 27/59/49 36/96/49 37/106/49
f 43/104/50 28/103/50 50/62/50 52/38/50
f 25/84/51 32/87/51 53/75/51 54/63/51 50/62/51 28/103/51 37/106/51 26/85/51
f 30/28/52 29/112/52 51/53/52 31/113/52
f 29/112/53 43/104/53 52/38/53 51/53/53
f 78/114/54 57/115/54 8/116/54 3/23/54 71/22/54
f 60/117/55 59/118/55 150/119/55 151/120/55
f 55/121/56 56/122/56 125/123/56 137/124/56
f 56/89/57 57/88/57 59/118/57 60/117/57
f 55/2/58 58/1/58 11/39/58 45/42/58
f 57/125/59 78/126/59 150/127/59 59/128/59
f 125/123/60 56/122/60 60/129/60 151/130/60
f 154/131/58 61/4/58 62/3/58 153/132/58
f 89/133/61 58/134/61 61/135/61 154/136/61
f 55/121/62 137/124/62 153/137/62 62/138/62
f 68/139/8 69/140/8 66/141/8 65/142/8
f 67/143/8 64/144/8 63/145/8 70/146/8
f 5/17/63 15/30/63 68/139/63 65/142/63
f 21/76/63 6/26/63 67/143/63 70/146/63
f 6/26/64 2/25/64 64/144/64 67/143/64
f 15/30/64 13/44/64 69/140/64 68/139/64
f 2/25/30 19/77/30 63/145/30 64/144/30
f 19/77/3 21/76/3 70/146/3 63/145/3
f 148/147/65 155/148/65 156/149/65 145/150/65
f 98/151/66 136/152/66 138/153/66 99/154/66
f 73/155/3 160/156/3 159/157/3 81/158/3
f 88/159/67 131/160/67 135/161/67 92/162/67
f 81/163/68 121/164/68 120/165/68 73/166/68
f 72/21/6 83/167/6 79/168/6 71/22/6
f 74/169/69 116/170/69 129/171/69 82/172/69
f 96/29/8 77/31/8 81/163/8 97/173/8
f 90/32/9 92/162/9 80/174/9 76/33/9
f 75/35/9 82/172/9 88/159/9 86/36/9
f 99/154/70 138/153/70 142/175/70 108/176/70
f 91/177/71 134/178/71 130/179/71 87/180/71
f 77/31/12 127/43/12 121/164/12 81/163/12
f 93/181/72 139/182/72 117/183/72 102/184/72
f 86/48/14 88/185/14 92/186/14 90/49/14
f 107/187/73 141/188/73 136/152/73 98/151/73
f 87/189/16 85/58/16 89/57/16 148/190/16 91/191/16
f 92/162/74 135/161/74 113/192/74 80/174/74
f 110/193/75 144/194/75 140/195/75 103/196/75
f 107/197/76 98/198/76 99/199/76 108/200/76
f 102/184/77 117/183/77 116/201/77 74/202/77
f 105/70/8 96/73/8 97/203/8 106/204/8
f 101/205/78 143/206/78 144/194/78 110/193/78
f 109/207/30 72/208/30 71/209/30 100/210/30
f 106/211/8 97/212/8 93/213/8 102/214/8
f 79/215/79 128/216/79 124/217/79 84/218/79
f 124/217/80 128/216/80 112/219/80 111/220/80
f 82/172/81 129/171/81 131/160/81 88/159/81
f 104/221/30 109/207/30 100/210/30 95/222/30
f 108/176/82 142/175/82 141/188/82 107/187/82
f 95/222/30 100/210/30 71/209/30 78/223/30
f 103/196/83 140/195/83 118/224/83 94/225/83
f 84/218/84 124/217/84 146/226/84 147/227/84
f 94/228/85 101/229/85 110/230/85 103/231/85
f 76/232/30 72/208/30 109/207/30 104/221/30
f 73/166/86 120/165/86 139/182/86 93/181/86
f 93/233/63 163/234/63 160/156/63 73/155/63
f 79/215/87 83/235/87 122/236/87 128/216/87
f 80/237/32 83/167/32 72/21/32 76/99/32
f 75/35/8 105/100/8 106/211/8 82/172/8
f 87/180/33 130/179/33 126/102/33 85/101/33
f 94/225/88 118/224/88 143/206/88 101/205/88
f 135/161/89 132/238/89 114/239/89 113/192/89
f 138/153/90 133/240/90 111/220/90 118/224/90
f 128/216/91 122/236/91 123/241/91 112/219/91
f 134/178/92 145/150/92 146/226/92 124/217/92
f 133/240/93 134/178/93 124/217/93 111/220/93
f 80/174/94 113/192/94 122/236/94 83/235/94
f 120/242/95 121/243/95 130/179/95 119/244/95
f 121/243/42 127/110/42 126/102/42 130/179/42
f 139/245/96 120/242/96 119/244/96 136/152/96
f 129/171/97 116/170/97 115/246/97 131/160/97
f 119/244/98 130/179/98 134/178/98 133/240/98
f 136/152/99 119/244/99 133/240/99 138/153/99
f 131/160/100 115/246/100 132/238/100 135/161/100
f 117/247/101 139/245/101 136/152/101 141/188/101
f 142/175/101 138/153/101 118/224/101 140/195/101
f 114/239/102 123/241/102 122/236/102 113/192/102
f 132/238/103 142/175/103 140/195/103 114/239/103
f 111/220/104 112/219/104 123/241/104 114/239/104 140/195/104 144/194/104 143/206/104 118/224/104
f 116/170/105 117/247/105 141/188/105 115/246/105
f 115/246/106 141/188/106 142/175/106 132/238/106
f 78/114/54 71/22/54 79/168/54 84/248/54 147/249/54
f 152/250/107 151/120/107 150/119/107 149/251/107
f 145/252/108 137/124/108 125/123/108 146/253/108
f 146/226/109 152/250/109 149/251/109 147/227/109
f 145/150/58 134/178/58 91/177/58 148/147/58
f 147/254/59 149/255/59 150/127/59 78/126/59
f 125/123/110 151/130/110 152/256/110 146/253/110
f 154/131/58 153/132/58 156/149/58 155/148/58
f 89/133/61 154/136/61 155/257/61 148/258/61
f 145/252/62 156/259/62 153/137/62 137/124/62
f 162/260/8 159/261/8 160/262/8 163/263/8
f 161/264/8 164/265/8 157/266/8 158/267/8
f 81/163/30 159/261/30 162/260/30 97/173/30
f 106/211/30 164/265/30 161/264/30 82/172/30
f 82/172/64 161/264/64 158/267/64 74/169/64
f 97/173/64 162/260/64 163/263/64 93/181/64
f 74/169/63 158/267/63 157/266/63 102/214/63
f 102/214/3 157/266/3 164/265/3 106/211/3
